<svg width="500" height="500" viewBox="0 0 500 500" fill="none" xmlns="http://www.w3.org/2000/svg">
<rect width="500" height="500" fill="#2F2B5B"/>
<path fill-rule="evenodd" clip-rule="evenodd" d="M84.2972 365.301L87.8113 367.338C88.7594 367.887 89.9718 367.561 90.5191 366.609L92.5832 363.021C93.1306 362.07 92.8058 360.853 91.8576 360.303L88.3435 358.267C87.3954 357.717 86.183 358.044 85.6357 358.995L83.5716 362.583C83.0242 363.535 83.349 364.752 84.2972 365.301ZM177.328 411.011C176.683 411.011 176.079 410.696 175.708 410.167L164.9 394.766H160.185V409.022C160.185 410.12 159.297 411.011 158.202 411.011H154.356C153.261 411.011 152.373 410.12 152.373 409.022V361.228C152.373 360.129 153.261 359.238 154.356 359.238H158.202C159.297 359.238 160.185 360.129 160.185 361.228V387.632H164.97L174.652 373.72C175.023 373.188 175.63 372.87 176.278 372.87H182.553C183.356 372.87 183.826 373.779 183.364 374.438L171.585 391.234L184.73 409.432C185.205 410.09 184.737 411.011 183.928 411.011H177.328ZM41.9823 361.569H58.1559C67.7264 361.569 74.9747 368.562 74.9747 378.951C74.9747 389.269 67.7968 396.261 58.1559 396.261H48.0224V409.022C48.0224 410.12 47.1349 411.011 46.0401 411.011H41.9823C40.8875 411.011 40 410.12 40 409.022V363.559C40 362.46 40.8875 361.569 41.9823 361.569ZM48.0224 388.562H57.804C63.0819 388.562 66.7412 384.392 66.7412 378.951C66.7412 373.438 63.0819 369.268 57.804 369.268H48.0224V388.562ZM86.1892 411.011C85.0944 411.011 84.2069 410.12 84.2069 409.022V374.86C84.2069 373.761 85.0944 372.87 86.1892 372.87H90.0358C91.1306 372.87 92.0181 373.761 92.0181 374.86V409.022C92.0181 410.12 91.1306 411.011 90.0358 411.011H86.1892ZM122.812 412C132.172 412 139.702 406.067 141.742 397.167L141.849 396.636C141.973 396.02 141.504 395.444 140.878 395.444H135.922C135.149 395.444 134.447 395.895 134.123 396.599L133.861 397.167C131.82 401.829 127.809 404.513 122.812 404.513C116.057 404.513 110.849 399.004 110.849 391.941C110.849 384.878 115.986 379.439 122.812 379.439C127.738 379.439 131.961 382.123 133.931 386.502L134.398 387.551C134.717 388.268 135.426 388.729 136.208 388.729H140.297C141.228 388.729 141.93 387.881 141.758 386.962L141.672 386.502C139.561 377.744 132.242 371.952 122.812 371.952C111.483 371.952 102.897 380.569 102.897 391.941C102.897 403.312 111.483 412 122.812 412ZM207.24 412C216.529 412 222.652 407.197 222.652 399.781C222.652 390.408 214.875 389.121 208.479 388.063L208.437 388.056L208.35 388.041C203.814 387.271 199.992 386.622 199.992 383.253C199.992 380.498 202.666 378.591 206.959 378.591C211.533 378.591 214.348 380.569 214.489 384.171C214.489 384.777 214.956 385.279 215.559 385.32L220.313 385.64C221.16 385.697 221.878 385.023 221.878 384.171C221.737 376.826 215.966 371.952 207.17 371.952C198.303 371.952 192.462 376.684 192.462 383.536C192.462 392.364 199.922 393.777 206.255 394.907C210.9 395.684 214.981 396.461 214.981 400.134C214.981 403.312 211.744 405.078 207.522 405.078C202.948 405.078 199.57 402.959 199.359 398.933C199.359 398.23 198.815 397.647 198.115 397.601L193.342 397.289C192.485 397.233 191.759 397.916 191.759 398.778V398.933C191.97 406.844 198.022 412 207.24 412ZM250.847 371.952C262.529 371.952 270.27 380.993 270.27 392.082C270.27 392.93 270.199 393.777 270.058 394.625H239.236C240.221 400.84 244.654 404.654 250.847 404.654C254.698 404.654 257.901 403.152 260.035 400.57C260.175 400.4 260.35 400.157 260.519 399.913C260.905 399.354 261.532 399.004 262.209 399.004H267.876C268.581 399.004 269.059 399.722 268.774 400.369C268.605 400.752 268.427 401.138 268.285 401.413C264.863 408.031 258.476 412 250.847 412C239.728 412 231.354 403.383 231.354 391.941C231.354 380.569 239.728 371.952 250.847 371.952ZM262.388 388.268C260.98 382.476 256.688 379.086 250.847 379.086C245.006 379.086 240.713 382.617 239.447 388.268H262.388ZM280.179 409.022C280.179 410.12 281.067 411.011 282.161 411.011H286.008C287.103 411.011 287.99 410.12 287.99 409.022V361.228C287.99 360.129 287.103 359.238 286.008 359.238H282.161C281.067 359.238 280.179 360.129 280.179 361.228V409.022ZM303.171 411.011C302.076 411.011 301.189 410.12 301.189 409.022V361.228C301.189 360.129 302.076 359.238 303.171 359.238H307.018C308.113 359.238 309 360.129 309 361.228V409.022C309 410.12 308.113 411.011 307.018 411.011H303.171Z" fill="white"/>
<path d="M281.849 158.783C289.82 154.181 300.012 156.912 304.614 164.883L337.564 221.953C342.166 229.924 339.435 240.116 331.464 244.718L274.394 277.667C266.423 282.269 256.231 279.538 251.629 271.567L218.679 214.497C214.077 206.527 216.808 196.334 224.779 191.732L281.849 158.783Z" fill="#3EC0AD"/>
<path d="M200.959 156.443C209.849 154.061 218.987 159.337 221.369 168.227L229.993 200.411C232.375 209.302 227.099 218.44 218.209 220.822L186.024 229.446C177.134 231.828 167.996 226.552 165.614 217.662L156.99 185.477C154.608 176.587 159.884 167.449 168.774 165.067L200.959 156.443Z" fill="#FF6955"/>
<path d="M215.8 123.227C220.402 115.257 230.594 112.526 238.565 117.128L321.867 165.222C329.838 169.824 332.569 180.016 327.967 187.987L279.872 271.289C275.27 279.26 265.078 281.991 257.107 277.389L173.805 229.294C165.834 224.693 163.104 214.5 167.705 206.53L215.8 123.227Z" fill="#FFE562"/>
<path d="M231.018 162.156C232.36 159.831 235.333 159.034 237.658 160.377C239.983 161.719 240.78 164.692 239.437 167.017L235.965 173.031C234.623 175.356 231.65 176.153 229.325 174.811C226.999 173.468 226.203 170.495 227.545 168.17L231.018 162.156Z" fill="#2F2B5B"/>
<path d="M276.614 188.481C277.956 186.156 280.929 185.359 283.254 186.701C285.579 188.044 286.376 191.017 285.034 193.342L281.561 199.356C280.219 201.681 277.246 202.478 274.921 201.135C272.596 199.793 271.799 196.82 273.142 194.495L276.614 188.481Z" fill="#2F2B5B"/>
<rect x="340" y="338" width="142.567" height="94" rx="20" fill="white"/>
<path d="M420.02 373.457L419.086 376.805C416.435 373.934 413.404 372.725 409.075 372.725C400.363 372.725 393.869 379.535 393.869 388.653C393.869 397.77 400.363 404.636 409.075 404.636C413.35 404.636 416.435 403.36 419.086 400.602L419.804 403.848H424.043C424.784 403.848 425.384 403.239 425.384 402.488V374.817C425.384 374.066 424.784 373.457 424.043 373.457H420.02ZM409.562 398.614C404.043 398.614 399.984 394.337 399.984 388.653C399.984 382.968 404.043 378.691 409.562 378.691C415.082 378.691 419.086 382.912 419.086 388.653C419.086 394.393 415.082 398.614 409.562 398.614Z" fill="#2F2B5B"/>
<path d="M457.065 373.457C456.523 373.457 456.035 373.787 455.827 374.294L447.458 394.675L438.504 374.264C438.289 373.773 437.809 373.457 437.279 373.457H432.701C432.212 373.457 431.888 373.969 432.091 374.42L444.374 401.653L443.724 403.117C441.56 407.957 440.369 409.139 436.527 409.139H435.325C434.584 409.139 433.984 409.747 433.984 410.498V413.407C433.984 414.158 434.584 414.767 435.325 414.767H436.96C442.912 414.767 445.835 412.065 449.136 404.411L462.143 374.41C462.337 373.961 462.013 373.457 461.529 373.457H457.065Z" fill="#2F2B5B"/>
<path fill-rule="evenodd" clip-rule="evenodd" d="M363.465 364.633H375.963C383.359 364.633 388.96 370.092 388.96 378.202C388.96 386.257 383.413 391.716 375.963 391.716H368.133V401.677C368.133 402.535 367.447 403.231 366.601 403.231H363.465C362.619 403.231 361.933 402.535 361.933 401.677V366.187C361.933 365.329 362.619 364.633 363.465 364.633ZM368.133 385.706H375.691C379.77 385.706 382.597 382.45 382.597 378.202C382.597 373.899 379.77 370.643 375.691 370.643H368.133V385.706Z" fill="#2F2B5B"/>
</svg>
